<svg width="24" height="24" viewBox="0 0 24 24" fill="none" xmlns="http://www.w3.org/2000/svg">
<path fill-rule="evenodd" clip-rule="evenodd" d="M8.06248 2.4952C8.89081 1.19554 10.3445 0.333374 12 0.333374C13.6555 0.333374 15.1091 1.19554 15.9375 2.4952C17.4413 2.16154 19.0793 2.58038 20.2495 3.75054C21.4196 4.92188 21.8385 6.5587 21.5048 8.0637C22.8045 8.89203 23.6666 10.3457 23.6666 12C23.6666 13.6555 22.8045 15.1092 21.5048 15.9375C21.8385 17.4425 21.4196 19.0794 20.2495 20.2495C19.0793 21.4209 17.4413 21.8385 15.9375 21.506C15.1091 22.8057 13.6555 23.6667 12 23.6667C10.3445 23.6667 8.89081 22.8057 8.06248 21.506C6.55748 21.8385 4.92065 21.4209 3.75048 20.2495C2.58031 19.0794 2.16149 17.4425 2.49399 15.9375C1.19549 15.1092 0.333313 13.6555 0.333313 12C0.333313 10.3457 1.19549 8.89203 2.49399 8.0637C2.16149 6.5587 2.58031 4.92188 3.75048 3.75054C4.92065 2.58038 6.55748 2.16154 8.06248 2.4952ZM8.12432 4.97903C8.42999 5.1377 8.79048 5.15286 9.10898 5.02103C9.42748 4.8892 9.67132 4.6232 9.77515 4.29537C10.0738 3.35154 10.957 2.66671 12 2.66671C13.043 2.66671 13.9262 3.35154 14.2248 4.29537C14.3287 4.6232 14.5725 4.8892 14.891 5.02103C15.2095 5.15286 15.5688 5.1377 15.8745 4.97903C16.7541 4.52287 17.8625 4.66287 18.5998 5.40137C19.3372 6.1387 19.4783 7.24704 19.0222 8.12554C18.8635 8.43121 18.8472 8.79171 18.979 9.10905C19.1108 9.42754 19.3768 9.67138 19.7047 9.77521C20.6497 10.0739 21.3333 10.957 21.3333 12C21.3333 13.043 20.6497 13.9274 19.7047 14.226C19.3768 14.3299 19.1108 14.5737 18.979 14.891C18.8472 15.2095 18.8635 15.57 19.0222 15.8757C19.4783 16.7542 19.3372 17.8625 18.5998 18.5999C17.8625 19.3372 16.7541 19.4784 15.8745 19.0222C15.5688 18.8635 15.2095 18.8484 14.891 18.9802C14.5725 19.112 14.3287 19.378 14.2248 19.7059C13.9262 20.6497 13.043 21.3334 12 21.3334C10.957 21.3334 10.0738 20.6497 9.77515 19.7059C9.67132 19.378 9.42748 19.112 9.10898 18.9802C8.79048 18.8484 8.42999 18.8635 8.12432 19.0222C7.24582 19.4784 6.13748 19.3372 5.40015 18.5999C4.66282 17.8625 4.52165 16.7542 4.97782 15.8757C5.13648 15.57 5.15165 15.2095 5.02099 14.891C4.88915 14.5737 4.62315 14.3299 4.29415 14.226C3.35032 13.9274 2.66665 13.043 2.66665 12C2.66665 10.957 3.35032 10.0739 4.29415 9.77521C4.62315 9.67138 4.88915 9.42754 5.02099 9.10905C5.15165 8.79171 5.13648 8.43121 4.97782 8.12554C4.52165 7.24704 4.66282 6.1387 5.40015 5.40137C6.13748 4.66287 7.24582 4.52287 8.12432 4.97903ZM12 7.33337C9.42398 7.33337 7.33331 9.42521 7.33331 12C7.33331 14.576 9.42398 16.6667 12 16.6667C14.576 16.6667 16.6666 14.576 16.6666 12C16.6666 9.42521 14.576 7.33337 12 7.33337ZM12 9.66671C13.288 9.66671 14.3333 10.7132 14.3333 12C14.3333 13.288 13.288 14.3334 12 14.3334C10.712 14.3334 9.66665 13.288 9.66665 12C9.66665 10.7132 10.712 9.66671 12 9.66671Z" fill="#759791"/>
</svg>
