<svg width="24" height="24" viewBox="0 0 24 24" fill="none" xmlns="http://www.w3.org/2000/svg">
<path fill-rule="evenodd" clip-rule="evenodd" d="M12.1667 22.5C12.1667 23.1452 12.6882 23.6667 13.3333 23.6667H16.8333C18.0712 23.6667 19.2577 23.1755 20.1327 22.3005C21.0077 21.4255 21.5 20.2379 21.5 19C21.5 18.3304 21.5 17.8334 21.5 17.8334C21.5 17.1894 20.9773 16.6667 20.3333 16.6667H13.3333C12.6882 16.6667 12.1667 17.1894 12.1667 17.8334V22.5ZM8.66667 23.6667C9.31067 23.6667 9.83333 23.1452 9.83333 22.5V10.8334C9.83333 10.1894 9.31067 9.66671 8.66667 9.66671H1.66667C1.0215 9.66671 0.5 10.1894 0.5 10.8334V19C0.5 20.2379 0.991164 21.4255 1.86616 22.3005C2.74116 23.1755 3.92883 23.6667 5.16667 23.6667H8.66667ZM19.1667 19H14.5V21.3334H16.8333C17.4517 21.3334 18.0455 21.0884 18.483 20.6509C18.9205 20.2134 19.1667 19.6195 19.1667 19ZM7.5 21.3334V12H2.83333V19C2.83333 19.6195 3.07833 20.2134 3.517 20.6509C3.9545 21.0884 4.54717 21.3334 5.16667 21.3334H7.5ZM13.3333 0.333374C12.6882 0.333374 12.1667 0.856041 12.1667 1.50004V13.1667C12.1667 13.8119 12.6882 14.3334 13.3333 14.3334H20.3333C20.9773 14.3334 21.5 13.8119 21.5 13.1667V5.00004C21.5 3.76337 21.0077 2.5757 20.1327 1.7007C19.2577 0.825704 18.0712 0.333374 16.8333 0.333374H13.3333ZM14.5 2.66671V12H19.1667V5.00004C19.1667 4.38171 18.9205 3.78787 18.483 3.35037C18.0455 2.91287 17.4517 2.66671 16.8333 2.66671H14.5ZM9.83333 1.50004C9.83333 0.856041 9.31067 0.333374 8.66667 0.333374H5.16667C3.92883 0.333374 2.74116 0.825704 1.86616 1.7007C0.991164 2.5757 0.5 3.76337 0.5 5.00004V6.16671C0.5 6.81187 1.0215 7.33337 1.66667 7.33337H8.66667C9.31067 7.33337 9.83333 6.81187 9.83333 6.16671V1.50004ZM7.5 2.66671H5.16667C4.54717 2.66671 3.9545 2.91287 3.517 3.35037C3.07833 3.78787 2.83333 4.38171 2.83333 5.00004H7.5V2.66671Z" fill="#0E8A74"/>
</svg>
