<svg width="24" height="24" viewBox="0 0 24 24" fill="none" xmlns="http://www.w3.org/2000/svg">
<path fill-rule="evenodd" clip-rule="evenodd" d="M17.1666 18.5579C17.1666 17.7844 16.8598 17.0424 16.3126 16.4964C16.0781 16.2619 15.7923 15.976 15.517 15.7007C14.642 14.8257 13.4543 14.3334 12.2165 14.3334C10.4653 14.3334 7.53465 14.3334 5.78348 14.3334C4.54565 14.3334 3.35798 14.8257 2.48298 15.7007C2.20765 15.976 1.92181 16.2619 1.68731 16.4964C1.14015 17.0424 0.833313 17.7844 0.833313 18.5579V20.75C0.833313 21.5235 1.14015 22.2655 1.68731 22.8127C2.23448 23.3599 2.97648 23.6667 3.74998 23.6667H14.25C15.0235 23.6667 15.7655 23.3599 16.3126 22.8127C16.8598 22.2655 17.1666 21.5235 17.1666 20.75C17.1666 19.9905 17.1666 19.1435 17.1666 18.5579ZM14.8333 18.5579V20.75C14.8333 20.9052 14.7715 21.0534 14.663 21.163C14.5533 21.2715 14.4051 21.3334 14.25 21.3334C11.5608 21.3334 6.43915 21.3334 3.74998 21.3334C3.59481 21.3334 3.44665 21.2715 3.33698 21.163C3.22848 21.0534 3.16665 20.9052 3.16665 20.75C3.16665 19.9905 3.16665 19.1435 3.16665 18.5579C3.16665 18.4039 3.22848 18.2557 3.33698 18.146C3.57148 17.9115 3.85731 17.6257 4.13265 17.3504C4.57015 16.9129 5.16398 16.6667 5.78348 16.6667H12.2165C12.836 16.6667 13.4298 16.9129 13.8673 17.3504L14.663 18.146C14.7715 18.2557 14.8333 18.4039 14.8333 18.5579ZM13.6666 5.00004C13.6666 2.42287 11.5771 0.333374 8.99998 0.333374C6.42281 0.333374 4.33331 2.42287 4.33331 5.00004V7.33337C4.33331 9.91054 6.42281 12 8.99998 12C11.5771 12 13.6666 9.91054 13.6666 7.33337V5.00004ZM8.99998 2.66671C7.71081 2.66671 6.66665 3.71204 6.66665 5.00004V7.33337C6.66665 8.62254 7.71081 9.6667 8.99998 9.6667C10.2891 9.6667 11.3333 8.62254 11.3333 7.33337V5.00004C11.3333 3.71204 10.2891 2.66671 8.99998 2.66671Z" fill="#759791"/>
</svg>
